<svg xmlns="http://www.w3.org/2000/svg" version="1.1" xmlns:xlink="http://www.w3.org/1999/xlink" xmlns:svgjs="http://svgjs.dev/svgjs" width="31.95" height="32.09"><svg xmlns="http://www.w3.org/2000/svg" id="SvgjsSvg1003" data-name="Layer 2" viewBox="0 0 31.95 32.09"><defs><style> .cls-1 { fill: none; } .cls-1, .cls-2 { stroke-width: 0px; } .cls-2 { fill: #64c36c; } </style></defs><g id="SvgjsG1002" data-name="Layer 1"><path class="cls-2" d="M29.43,17.09c-.45-.88-1.12-1.56-1.89-1.99,1.17-1.57.79-3.07.52-3.74-.58-1.43-2.02-2.57-3.44-2.83-.11-.99-.66-1.92-1.56-2.62-.86-.67-1.9-.99-2.86-.94-.69-2.16-2.07-2.94-2.89-3.21-1.52-.51-3.33-.08-4.6,1.09-.76.71-1.23,1.59-1.35,2.51-1.29.04-2.4.5-3.2,1.36-.58.62-.95,1.43-1.07,2.23-2.93,0-4.41,1.92-4.78,3.73-.33,1.59.12,3.44,1.36,4.46-1.59,2.06-1.19,4.43.08,6.04,1.21,1.53,3.36,2.49,5.59,2.01l6.32,6.86,2.02-.09,5.31-6.79c.56-.42,1.04-.95,1.37-1.54,2.89.13,4.28-.95,4.95-1.93.88-1.28.94-3.05.13-4.62h0ZM19.72,26.06l-3.14,4.02-2.89-3.14c.24.06.49.1.75.12.14.01.27.01.4.01,1.42,0,2.61-.6,3.36-1.67.45.35.97.56,1.52.66h0ZM27.64,20.56c-.59.85-1.95,1.21-3.82,1.01l-.83-.09-.25.8c-.17.56-.63,1.1-1.18,1.44h0c-.32.2-.67.34-1.02.38-.69.08-1.23-.23-1.64-.93-.22-.38-.64-.58-1.07-.53l-.72.14-.18.64c-.43,1.54-1.66,1.67-2.34,1.62-1.21-.09-2.31-.89-2.41-1.74l-.12-.66-1.16-.46-.47.34c-1.94,1.4-4.04.76-5.11-.59-.85-1.07-1.14-2.74.57-4.22.31-.26.44-.68.35-1.07l-.19-.65-.59-.15c-1-.26-1.42-1.63-1.19-2.75.12-.59.75-2.5,3.68-2.05l1.48.23-.35-1.46c-.1-.44.02-1.17.53-1.72.57-.62,1.48-.84,2.61-.66l1.5.24-.35-1.47c-.22-.92.4-1.62.68-1.87.73-.67,1.77-.94,2.6-.66.91.3,1.53,1.23,1.8,2.68l.23,1.26,1.17-.53c.52-.23,1.33-.06,1.95.42.22.17.92.79.78,1.63-.06.37.05.75.31,1.01.25.27.63.4,1,.35.7-.09,1.88.62,2.28,1.62.36.89,0,1.75-1.09,2.58-.37.28-.52.76-.38,1.2l.29.73h.72c.89.03,1.57.73,1.9,1.38.46.89.46,1.89,0,2.55h0Z"></path><rect class="cls-1" width="31.95" height="32.09"></rect></g></svg><style>@media (prefers-color-scheme: light) { :root { filter: none; } }
@media (prefers-color-scheme: dark) { :root { filter: none; } }
</style></svg>